<?xml version="1.0" standalone="no"?>
<!DOCTYPE svg PUBLIC "-//W3C//DTD SVG 20010904//EN"
 "http://www.w3.org/TR/2001/REC-SVG-20010904/DTD/svg10.dtd">
<svg version="1.0" xmlns="http://www.w3.org/2000/svg"
 width="512.000000pt" height="512.000000pt" viewBox="0 0 512.000000 512.000000"
 preserveAspectRatio="xMidYMid meet">
<metadata>
Created by potrace 1.14, written by Peter Selinger 2001-2017
</metadata>
<g transform="translate(0.000000,512.000000) scale(0.100000,-0.100000)"
fill="#000000" stroke="none">
<path d="M3044 5044 c-49 -59 -90 -119 -110 -164 -9 -19 -22 -46 -29 -60 -21
-41 -54 -169 -69 -271 -14 -89 -14 -294 -1 -364 26 -140 79 -283 149 -400 77
-130 233 -299 356 -387 211 -150 441 -221 715 -222 333 -1 472 47 745 257 81
63 229 211 253 255 l19 33 -54 -35 c-90 -59 -278 -152 -373 -185 -153 -53
-252 -69 -404 -66 -225 4 -408 63 -641 209 -99 61 -196 136 -241 183 -149 160
-295 444 -328 638 -24 141 -1 424 46 568 8 27 13 50 11 52 -2 3 -22 -16 -44
-41z"/>
<path d="M1945 4773 c-92 -116 -228 -329 -285 -447 -130 -272 -172 -510 -146
-831 45 -548 417 -1134 941 -1482 231 -154 496 -257 735 -287 204 -26 512 -27
665 -1 17 3 44 7 60 10 211 36 442 119 615 223 250 150 441 360 563 617 l28
60 -28 -25 c-15 -14 -34 -32 -43 -40 -168 -168 -495 -335 -795 -407 -142 -34
-409 -48 -550 -29 -96 13 -120 17 -145 22 -14 2 -34 6 -45 8 -113 21 -325 93
-460 155 -537 248 -962 710 -1137 1236 -63 189 -91 366 -92 580 0 163 8 249
33 345 23 90 82 248 116 308 13 23 22 42 19 42 -2 0 -24 -26 -49 -57z"/>
<path d="M615 4277 c-196 -213 -310 -374 -410 -582 -92 -190 -165 -445 -192
-665 -10 -84 -10 -415 1 -505 23 -206 96 -500 161 -650 7 -16 18 -46 26 -65
22 -60 123 -261 174 -345 196 -326 453 -610 795 -878 43 -34 230 -157 238
-157 6 0 12 -4 14 -9 4 -12 209 -119 318 -167 73 -32 252 -97 300 -110 8 -2
58 -15 110 -28 137 -36 334 -70 485 -83 142 -12 470 -6 575 11 14 3 43 7 65
10 22 3 50 7 61 10 12 2 39 7 59 10 230 37 569 168 785 304 308 194 612 530
779 860 41 81 39 92 -6 49 -168 -161 -426 -320 -697 -432 -143 -59 -370 -125
-486 -141 -19 -2 -44 -6 -55 -9 -143 -30 -594 -24 -785 11 -19 3 -46 8 -60 10
-297 50 -559 135 -845 274 -374 181 -723 445 -970 735 -33 39 -63 72 -66 75
-17 13 -176 243 -220 318 -131 221 -250 518 -283 707 -3 17 -8 41 -11 55 -3
14 -7 36 -10 50 -3 14 -7 34 -9 46 -28 139 -28 495 0 694 7 46 51 242 68 305
35 124 56 188 64 198 19 25 71 127 64 127 -4 -1 -20 -16 -37 -33z"/>
</g>
</svg>
