<?xml version="1.0" standalone="no"?>
<!DOCTYPE svg PUBLIC "-//W3C//DTD SVG 20010904//EN"
 "http://www.w3.org/TR/2001/REC-SVG-20010904/DTD/svg10.dtd">
<svg version="1.0" xmlns="http://www.w3.org/2000/svg"
 width="512.000000pt" height="512.000000pt" viewBox="0 0 512.000000 512.000000"
 preserveAspectRatio="xMidYMid meet">
<metadata>
Created by potrace 1.14, written by Peter Selinger 2001-2017
</metadata>
<g transform="translate(0.000000,512.000000) scale(0.100000,-0.100000)"
fill="#000000" stroke="none">
<path d="M325 5058 c6 -63 9 -95 20 -215 14 -165 16 -190 20 -223 2 -19 7 -71
10 -115 5 -77 11 -143 21 -232 2 -23 6 -75 9 -115 3 -40 7 -91 10 -113 2 -22
7 -71 10 -110 4 -38 8 -88 10 -110 2 -22 6 -76 10 -120 3 -44 8 -96 10 -115 2
-19 7 -71 10 -115 3 -44 8 -96 10 -115 6 -41 11 -104 20 -215 3 -44 8 -91 10
-105 2 -14 6 -65 10 -115 3 -49 8 -103 10 -120 4 -29 8 -72 20 -230 3 -38 8
-88 10 -110 2 -22 7 -71 10 -110 3 -38 8 -90 10 -115 2 -25 7 -76 10 -115 4
-38 8 -90 10 -115 2 -25 6 -72 10 -105 12 -130 15 -173 20 -235 3 -36 8 -85
10 -110 3 -25 7 -76 10 -115 3 -38 8 -86 10 -105 2 -19 7 -69 10 -110 3 -41 8
-95 10 -120 2 -25 7 -74 10 -110 13 -152 16 -187 20 -220 2 -19 7 -71 10 -115
10 -129 12 -146 17 -151 4 -3 506 -147 558 -159 8 -2 89 -24 180 -50 91 -26
176 -49 189 -52 14 -2 28 -6 31 -8 4 -3 88 -27 186 -54 99 -27 253 -71 344
-96 91 -25 205 -57 253 -70 l89 -24 141 40 c78 22 151 42 162 44 11 3 43 11
70 20 28 8 106 30 175 49 69 19 199 56 290 81 91 26 172 48 180 50 21 5 300
83 520 145 102 29 208 58 237 66 57 17 54 8 68 174 4 36 8 85 10 110 3 25 7
74 10 110 2 36 7 85 9 110 3 25 8 79 11 120 3 41 8 95 10 120 7 64 13 133 20
220 3 41 8 91 10 110 2 19 7 69 10 110 3 41 8 95 10 120 3 25 7 74 10 110 3
36 10 112 15 170 6 58 13 134 16 170 9 110 12 142 19 220 4 41 9 96 11 123 10
117 25 283 29 327 2 19 6 71 9 115 4 44 8 96 11 115 2 19 7 71 11 115 3 44 8
94 9 110 2 17 6 66 10 110 4 44 8 96 10 115 2 19 6 72 10 117 3 44 7 89 9 100
2 10 7 63 11 118 4 55 8 107 10 115 2 8 6 56 10 105 3 50 8 104 10 120 3 17 7
66 10 110 3 44 7 98 10 120 2 22 7 72 10 110 4 39 8 88 10 110 2 22 7 72 10
110 3 39 7 93 10 120 3 28 7 76 10 108 l4 57 -2240 0 -2241 0 7 -62z"/>
</g>
</svg>
