<?xml version="1.0" standalone="no"?>
<!DOCTYPE svg PUBLIC "-//W3C//DTD SVG 20010904//EN"
 "http://www.w3.org/TR/2001/REC-SVG-20010904/DTD/svg10.dtd">
<svg version="1.0" xmlns="http://www.w3.org/2000/svg"
 width="602.000000pt" height="602.000000pt" viewBox="0 0 602.000000 602.000000"
 preserveAspectRatio="xMidYMid meet">
<metadata>
Created by potrace 1.14, written by Peter Selinger 2001-2017
</metadata>
<g transform="translate(0.000000,602.000000) scale(0.100000,-0.100000)"
fill="#000000" stroke="none">
<path d="M1123 5395 c-130 -28 -274 -128 -352 -245 -36 -55 -77 -146 -87 -193
-2 -10 -6 -28 -10 -40 -4 -12 -8 -137 -9 -277 -2 -231 -10 -403 -20 -470 -2
-14 -7 -50 -10 -80 -11 -95 -55 -291 -86 -385 -103 -309 -262 -484 -483 -529
l-61 -13 -3 -154 -2 -155 32 -2 c123 -9 274 -102 365 -226 81 -110 162 -305
199 -481 21 -97 30 -147 39 -225 4 -30 8 -66 11 -80 10 -67 16 -217 19 -450 2
-257 5 -288 32 -370 49 -151 180 -297 325 -363 108 -49 41 -47 1991 -47 2017
0 1885 -4 2017 66 131 68 232 183 283 321 38 102 40 117 42 403 2 146 6 294 9
330 4 36 9 88 11 115 5 47 10 86 21 160 3 17 12 62 20 100 8 39 17 81 20 93
24 119 118 333 187 427 92 126 198 191 370 229 l27 6 0 151 c0 111 -3 150 -12
153 -7 2 -44 11 -83 20 -179 43 -327 195 -422 434 -33 81 -89 281 -99 352 -3
19 -9 60 -14 90 -5 30 -11 82 -15 115 -3 33 -8 85 -11 115 -3 30 -7 179 -9
330 -3 306 -7 333 -67 459 -72 152 -218 272 -384 315 -52 14 -263 16 -1889 15
-1501 0 -1841 -3 -1892 -14z"/>
</g>
</svg>
